<?xml version="1.0" encoding="UTF-8" standalone="no"?>
<!-- Created with Inkscape (http://www.inkscape.org/) -->

<svg
   height="100"
   width="100"
   version="1.1"
   id="svg189"
   sodipodi:docname="ano.svg"
   inkscape:version="1.2.1 (9c6d41e4, 2022-07-14)"
   xmlns:inkscape="http://www.inkscape.org/namespaces/inkscape"
   xmlns:sodipodi="http://sodipodi.sourceforge.net/DTD/sodipodi-0.dtd"
   xmlns="http://www.w3.org/2000/svg"
   xmlns:svg="http://www.w3.org/2000/svg"
   xmlns:rdf="http://www.w3.org/1999/02/22-rdf-syntax-ns#"
   xmlns:cc="http://creativecommons.org/ns#"
   xmlns:dc="http://purl.org/dc/elements/1.1/">
  <defs
     id="defs193" />
  <sodipodi:namedview
     id="namedview191"
     pagecolor="#ffffff"
     bordercolor="#666666"
     borderopacity="1.0"
     inkscape:showpageshadow="2"
     inkscape:pageopacity="0.0"
     inkscape:pagecheckerboard="0"
     inkscape:deskcolor="#d1d1d1"
     showgrid="false"
     inkscape:zoom="1.5515088"
     inkscape:cx="-103.12542"
     inkscape:cy="76.377267"
     inkscape:window-width="2560"
     inkscape:window-height="1387"
     inkscape:window-x="0"
     inkscape:window-y="25"
     inkscape:window-maximized="1"
     inkscape:current-layer="svg189" />
  <metadata
     id="metadata179">
    <rdf:RDF>
      <cc:Work
         rdf:about="">
        <dc:format>image/svg+xml</dc:format>
        <dc:type
           rdf:resource="http://purl.org/dc/dcmitype/StillImage" />
      </cc:Work>
    </rdf:RDF>
  </metadata>
  <g
     id="g200"
     transform="matrix(0.25714286,0,0,0.25714286,4.4571429,34.588143)">
    <path
       d="M 240.1,60.25 V 59.94 C 240.1,29.05 265,4 298.2,4 331.4,4 356,28.75 356,59.64 v 0.3 c 0,30.89 -24.9,55.93 -58.1,55.93 -10.2,0 -19.6,-2.32 -27.7,-6.47 -10.5,-5.39 -16.6,0.59 -26.6,4.32 6.9,-6.9 12.1,-12.52 5.4,-23.23 -5.5,-8.81 -8.9,-19.06 -8.9,-30.24 M 131.9,6.42 h 27.8 L 204,63.28 V 6.42 h 29.5 V 113.97 H 207.3 L 161.4,54.98 v 58.99 H 131.9 Z M 51.7,5.38 h 28.8 l 45.8,108.33 h -32 L 86.5,94.5 H 45 l -7.7,19.21 H 6 Z M 77.9,71.3 65.9,40.73 53.7,71.3 Z"
       fill="#282661"
       id="path181"
       style="fill-rule:nonzero" />
    <path
       fill="#ffffff"
       d="m 307.8,62.53 h 14.9 c 2.7,0 4.9,0.27 6.6,0.81 1.6,0.54 2.9,1.26 3.8,2.16 1,0.92 1.6,1.97 1.9,3.15 0.3,1.18 0.5,2.44 0.5,3.77 0,1.53 -0.3,2.87 -1,4.01 -0.6,1.14 -1.5,2.09 -2.6,2.84 -1.1,0.76 -2.4,1.32 -3.9,1.71 -1.4,0.39 -3,0.57 -4.7,0.57 h -3.5 v 7.17 h 2.8 v 6.1 h -14.8 v -6.1 h 2.6 V 68.58 h -2.6 z m 12,6 v 8.04 h 2.1 c 1.4,0 2.5,-0.33 3.3,-0.99 0.8,-0.66 1.2,-1.61 1.2,-2.84 0,-1.39 -0.3,-2.44 -1.1,-3.15 -0.8,-0.7 -1.8,-1.06 -3.2,-1.06 z m -31.5,-6 h 15.3 v 6.1 h -2.8 v 20.04 h 2.8 v 6.15 h -15.3 v -6.15 h 2.9 V 68.63 h -2.9 z m 16.1,-9.29 -7,6.56 h -5.7 l 3.6,-6.56 z m -44.3,9.29 h 14.6 v 6.1 h -2.4 v 20.04 h 5.9 V 82.8 h 7.8 v 12.02 h -25.9 v -6.15 h 2.5 V 68.63 h -2.5 z m 59,-33.69 h 16.5 v 6.05 h -4.7 v -2.44 h -4.4 v 3.79 h 5.2 v 3.64 h -5.2 v 4.46 h 4.4 V 41.8 h 4.7 v 6.18 h -16.5 v -3.64 h 1.8 V 32.45 h -1.8 z m -19.7,19.14 v -3.64 h 1.7 V 32.45 h -1.7 v -3.61 h 8.4 c 1.6,0 3.1,0.24 4.4,0.73 1.3,0.47 2.4,1.13 3.3,1.96 0.8,0.84 1.5,1.81 2,2.95 0.4,1.14 0.7,2.35 0.7,3.67 0,3.14 -0.9,5.57 -2.7,7.27 -1.8,1.71 -4.4,2.56 -7.8,2.56 z m 12.5,-9.83 c 0,-0.73 -0.1,-1.43 -0.3,-2.12 -0.1,-0.69 -0.4,-1.29 -0.7,-1.83 -0.3,-0.52 -0.7,-0.95 -1.3,-1.27 -0.5,-0.31 -1.1,-0.48 -1.8,-0.48 h -1.1 v 11.89 h 1.1 c 0.7,0 1.3,-0.16 1.8,-0.5 0.6,-0.32 1,-0.76 1.3,-1.32 0.3,-0.55 0.6,-1.22 0.7,-1.97 0.2,-0.73 0.3,-1.55 0.3,-2.4 M 279,28.84 h 8.7 v 3.54 h -1.5 v 5.91 c 0,1.1 0.1,1.99 0.2,2.69 0.1,0.69 0.3,1.24 0.5,1.62 0.2,0.4 0.5,0.67 0.9,0.82 0.3,0.13 0.7,0.21 1.1,0.21 0.4,0 0.8,-0.13 1.2,-0.18 0.3,-0.12 0.6,-0.36 0.8,-0.73 0.3,-0.38 0.5,-0.92 0.6,-1.62 0.1,-0.71 0.2,-1.65 0.2,-2.83 v -5.82 h -1.5 v -3.61 h 8.1 v 3.54 h -1.5 v 6.65 c 0,3.25 -0.6,5.64 -2,7.15 -1.3,1.51 -3.2,2.27 -5.8,2.27 -2.8,-0.12 -4.9,-0.88 -6.3,-2.37 -1.5,-1.49 -2.2,-3.79 -2.2,-6.91 V 32.4 H 279 Z M 260.4,47.98 V 44.42 H 262 V 32.37 h -1.6 v -3.53 h 10.2 c 2.3,0 4,0.4 5.1,1.21 1.1,0.82 1.6,1.98 1.6,3.47 0,0.58 0,1.1 -0.1,1.52 -0.1,0.43 -0.2,0.81 -0.4,1.15 -0.2,0.34 -0.5,0.63 -0.9,0.89 -0.3,0.26 -0.7,0.49 -1.2,0.69 0.5,0.15 0.9,0.33 1.4,0.58 0.4,0.25 0.8,0.57 1.1,0.95 0.3,0.38 0.6,0.83 0.8,1.35 0.2,0.53 0.3,1.12 0.3,1.77 0,1.93 -0.6,3.35 -1.8,4.23 -1.1,0.89 -3,1.33 -5.7,1.33 z m 7.3,-15.53 v 4.12 h 1.6 c 0.8,0 1.3,-0.2 1.5,-0.57 0.3,-0.37 0.4,-0.9 0.4,-1.55 0,-0.63 -0.2,-1.13 -0.5,-1.47 -0.3,-0.35 -0.8,-0.53 -1.3,-0.53 z m 2.2,11.97 c 0.5,0 1.1,-0.2 1.5,-0.62 0.5,-0.41 0.7,-0.98 0.7,-1.73 0,-0.7 -0.2,-1.28 -0.6,-1.73 -0.4,-0.46 -0.9,-0.69 -1.7,-0.69 h -2.1 v 4.77 z"
       id="path185"
       style="fill-rule:nonzero" />
  </g>
</svg>
