<?xml version="1.0" encoding="UTF-8" standalone="no"?>
<!-- Created with Inkscape (http://www.inkscape.org/) -->
<svg id="svg2" xmlns:rdf="http://www.w3.org/1999/02/22-rdf-syntax-ns#" xmlns="http://www.w3.org/2000/svg" height="360.44" width="540.66" version="1.1" xmlns:cc="http://creativecommons.org/ns#" xmlns:dc="http://purl.org/dc/elements/1.1/" viewBox="0 0 540.65571 360.43714">
 <g id="layer1" transform="translate(-44.965 -221.13)">
  <g id="g4148" transform="matrix(.72087 0 0 .72087 44.965 221.13)">
   <rect id="rect4138" height="500" width="750" y="0" x="0" fill="#ffcb04"/>
  </g>
  <g id="g4183" fill="#004a8f" transform="matrix(.91304 0 0 .91304 117.34 283.09)">
   <path id="path4153" d="m223.28 120.94s-29.426-42.343-25.031-79.391c-8.719-3.734-14.496-0.547-13.02 10.563 1.48 11.107 7.277 38.516 38.051 68.828"/>
   <path id="path4155" d="m288.53 34.519s-75.844-23.481-113.95-5.813c-26.676 12.606 3.629 40.367 3.629 40.367s-58.616-14.832-35.698-46.855c40.284-40.588 135.58 2.878 146.02 12.301"/>
   <path id="path4157" d="m230.99 73.788s-66.883 5.317-98.07 55.152c-11.452-8.714-13.668-21.094-1.784-31.843 11.885-10.746 43.166-34.055 99.854-23.309"/>
   <path id="path4159" d="m311.48 81.209c-19.72 42.327-55.767 57.077-93.396 61.288 81.349-43.628 76.426-104.62 76.426-104.62s31.001 8.707 16.97 43.333"/>
   <path id="path4161" d="m185.43 92.775s3.137 31.075 31.887 49.372c-17.332 5.934-38.207-4.622-46.539-18.454-7.336-14.745 1.156-24.01 14.652-30.918"/>
   <path id="path4163" d="m37.592 201.54c1.616-2.08 27.473-35.26 27.473-35.26h-19.212s-18.23 23.867-23.017 30.125v-30.125h-16.714v76.534h16.715v-34.276c4.941 6.276 26.98 34.276 26.98 34.276h20.438s-31.011-39.188-32.663-41.276"/>
   <path id="path4165" d="m128.01 175.39c-10.285-9.129-23.454-9.117-27.782-9.109h-26.164v76.534h25.504c7.313-0.198 11.083-0.69 14.981-1.944 6.715-2.043 18.758-7.906 23.694-24.108 1.316-4.367 1.902-8.228 1.902-12.524 0.002-11.58-4.424-22.092-12.135-28.849m-5.488 29.049c0 1.504-0.18 9.263-3.668 14.759-1.094 1.805-2.66 3.531-4.68 5.159-6.298 4.911-14.075 4.829-17.396 4.79h-0.652-5.448v-48.893h5.957c6.668 0 9.72 0.725 13.021 2.057 8.045 3.376 12.866 11.651 12.866 22.128z"/>
   <path id="path4167" d="m196.68 166.28v42c0 0.034 0.02 0.909 0.02 0.909 0.098 5.235 0.195 10.181-2.738 14.298-1.655 2.234-5.625 6.02-13.354 6.02-5.129 0-8.138-1.52-10.188-2.84-3.27-2.215-5.112-5.176-5.598-9.03-0.359-2.281-0.523-5.414-0.492-9.363l0.004-0.29v-41.472h-16.82v46.183c-0.012 2.321-0.047 8.473 2.474 14.196 3.051 6.933 9.563 12.035 18.34 14.358 3.801 1.023 7.98 1.565 12.078 1.565 7.512 0 25.586-1.757 31.277-18.065 1.206-3.164 1.608-6.073 1.711-12.41l0.004-45.805-16.718-0.254"/>
   <polyline id="polyline4169" points="224.79 197.61 219.4 209.31 241.65 209.31 246.88 197.61 224.79 197.61"/>
   <path id="path4171" d="m373.06 205.3c-3.41-3.617-7.771-5.746-11.594-7.453l-5.216-2.139c-4.797-1.947-10.659-4.332-10.659-9.775 0-2.039 0.926-3.579 1.477-4.311 1.828-2.563 4.926-3.84 9.234-3.84 8.301 0 13.516 3.985 15.737 5.686l2.785 2.129v-16.586l-1.022-0.457c-5.771-2.575-11.931-3.879-18.31-3.879-16.188 0-22.733 9.015-24.797 12.895-0.52 0.961-2.227 4.516-2.227 9.461 0 8.198 4.43 14.703 13.155 19.344 1.582 0.836 3.173 1.57 4.728 2.188l4.574 1.825c4.198 1.604 7.809 3.211 9.371 6.562 0.397 0.871 0.647 2.146 0.647 3.305 0 3.435-2.535 9.25-12.031 9.25-6.37 0-11.905-2.52-14.637-4.016-1.098-0.586-2.188-1.281-3.461-2.199l-2.723-1.965-0.142 16.789 1.086 0.446c2.074 0.843 3.642 1.406 5.228 1.871 0.051 0.007 0.402 0.104 0.402 0.104 2.358 0.621 8.625 2.276 15.159 2.276 4.438 0 19.438-0.953 26.103-13.179 1.664-3.105 2.535-6.653 2.535-10.281 0.004-5.268-1.914-10.254-5.402-14.051"/>
   <path id="path4173" d="m318.5 225.89c-9.238 3.336-15.401 3.722-19.238 3.722-8.78 0-15.793-2.478-20.844-7.366-5.09-4.897-7.668-11.259-7.668-18.891 0-1.846 0-7.453 3.504-13.432 1.547-2.664 3.574-5.02 5.728-6.645 4.522-3.425 10.737-5.386 17.059-5.386 7.422 0 12.945 2.483 16.273 4.565 0.026 0.017 4.297 2.672 4.297 2.672l-0.023-3.121v-13.396l-1.063-0.375-3.142-1.12-0.723-0.229c-1.066-0.313-2.152-0.582-3.262-0.821 2.352-2.253 8.651-8.292 8.651-8.292h-16.012s-3.68 4.378-5.172 6.147c-1.488-1.771-5.176-6.147-5.176-6.147h-15.849s5.974 6.046 8.16 8.257c-12.68 2.922-19.844 10.078-23.047 14.336-6.727 8.758-7.733 18.729-7.733 23.883 0 11.66 4.883 22.277 13.387 29.125 7.652 6.264 17.688 9.441 29.824 9.441 5.801 0 11.176-0.675 16.426-2.066l0.699-0.187 9.383-16.289-4.439 1.615"/>
   <polyline id="polyline4175" points="403.66 228.84 403.66 166.28 386.94 166.28 386.94 242.81 431.32 242.81 431.32 228.84 403.66 228.84"/>
  </g>
 </g>
</svg>
