<?xml version="1.0" encoding="utf-8"?>
<!-- Generator: Adobe Illustrator 27.0.0, SVG Export Plug-In . SVG Version: 6.00 Build 0)  -->
<svg version="1.1" id="Vrstva_1" xmlns="http://www.w3.org/2000/svg" xmlns:xlink="http://www.w3.org/1999/xlink" x="0px" y="0px"
	 viewBox="0 0 99.75 43.44" style="enable-background:new 0 0 99.75 43.44;" xml:space="preserve">
<style type="text/css">
	.st0{fill:#C00D0D;}
</style>
<path class="st0" d="M81.47,0l-2.55,6.03l-8.29-0.01l6.71,3.71l-2.58,6.02l6.69-3.73l6.69,3.73l-2.58-6.02l6.71-3.71l-8.29,0.01
	L81.47,0z"/>
<g>
	<defs>
		<rect id="SVGID_1_" x="0" width="99.75" height="43.44"/>
	</defs>
	<clipPath id="SVGID_00000097502315867146989970000002902727749432784264_">
		<use xlink:href="#SVGID_1_"  style="overflow:visible;"/>
	</clipPath>
</g>
<polygon class="st0" points="49.86,1.76 53.17,1.76 55.87,5.23 58.78,1.76 62.11,1.76 58.22,7.72 53.4,7.72 "/>
<path class="st0" d="M0,10.61h13.32v2.5c0,0-1.57-0.04-2.26,0c-0.7,0.04-1.48-0.1-1.48,1.25c0,1.35,0,8.57,0,8.57
	s7.77-8.72,8.12-9.11c0.35-0.39,0.06-0.75-0.37-0.71c-0.44,0.04-1.57,0-1.57,0l-0.04-2.5h10.62v2.5h-2.48
	c-0.61,0-1.18,0.42-1.7,0.89c-0.52,0.48-7.01,8.05-7.01,8.05s9.1,11.49,9.53,11.93c0.43,0.44,0.96,0.74,1.44,0.74h1.48
	c0,0,0.17,2.87,0.65,3.7c0.48,0.83,1.37,2.23,3.46,2.49c2.09,0.26,3.88,0.16,5.59-1.06c1.71-1.22,2.48-3.7,1.35-5.14
	c-1.13-1.44-4.48-3.14-6.92-3.92c-2.44-0.78-6.4-2.96-7.23-5.31c-0.83-2.35-0.48-6.5,2.74-8.53c3.22-2.03,6.62-2.22,10.41-1.61
	c3.79,0.61,5.16,1.26,5.16,1.26v4.66c0,0,0.63-5.33,3.5-8.49c2.87-3.15,6.1-4.05,9.49-4.05s8.62,1.52,8.62,1.52v5.4h10.49l6.4,19.94
	l6.79-20.07h11.49v2.13c0,0-1.92,0.09-2.7,0.09s-0.96,0.61-0.96,1.31c0,0.7-0.04,18.91-0.04,19.61s0.26,0.89,1.31,0.94
	c1.04,0.04,2.53,0.04,2.53,0.04v2.53H87.17l0.04-2.48c0,0,1.79,0.04,2.53-0.09c0.74-0.13,0.96,0.08,0.96-1.01
	c0-1.09,0.04-19.93,0.04-19.93l-8.1,23.51h-3.79l-7.84-23.34c0,0-0.04,18.46-0.04,19.29c0,0.83,0.52,1.57,1.18,1.52
	c0.65-0.04,2.26,0.04,2.26,0.04l0.04,2.48H63.13l-0.04-2.44c0,0,1.57-0.04,2.44-0.04s1.7-0.61,1.7-1.74s0.09-17.9,0.09-18.81
	c0-0.91-0.7-1.18-1.48-1.13c-0.78,0.04-5.23-0.13-5.23-0.13s0.13-3.26-1-4.61c-1.13-1.35-2.34-1.58-4.79-1.48
	c-2.45,0.1-6.54,3.56-6.62,11.01c-0.08,7.45,2.3,11.27,6.79,11.58c4.49,0.32,5.88-2.13,6.01-3.57c0.13-1.44,0.22-2.35,0.22-2.35
	L65,28.5v7.1c0,0-5.14,1.61-9.71,1.61c-4.57,0-8.58-2-10.14-4.79c-1.57-2.79-2.3-6.83-2.35-7.92c-0.06-1.09-0.01-1.14-0.01-1.14
	l-3.56,0.13c0,0-0.17-3.75-1.92-4.79c-1.74-1.04-3.98-1.45-6.53-0.04c-2.55,1.41-1.7,5.05,0.3,6.05c2,1,8.47,3.14,10.75,5.14
	c2.29,2,3.31,5.96,1.22,9.14c-2.09,3.18-6.18,4.53-9.88,4.44c-3.7-0.09-9.19-1.92-9.19-1.92v-4.31h-8.71v-2.48
	c0,0,1.09-0.04,1.96-0.04c0.87,0,0.87-0.43,0.26-1.17c-0.61-0.74-7.92-10.06-7.92-10.06l-0.04,9.49c0,0.84-0.04,1.71,1.13,1.75
	c1.18,0.04,2.66-0.01,2.66-0.01v2.53H0v-2.44c0,0,1.74-0.04,2.83-0.04c1.09,0,1.57-0.74,1.57-2.31c0-1.57,0-16.96,0-18.18
	s-1.13-1.13-2-1.13S0,13.09,0,13.09V10.61z"/>
</svg>
