<?xml version="1.0" encoding="UTF-8" standalone="no"?>
<!-- Created with Inkscape (http://www.inkscape.org/) -->

<svg
   width="100mm"
   height="100mm"
   viewBox="0 0 100 100"
   version="1.1"
   id="svg5"
   xml:space="preserve"
   inkscape:version="1.2.1 (9c6d41e4, 2022-07-14)"
   sodipodi:docname="motoriste.svg"
   xmlns:inkscape="http://www.inkscape.org/namespaces/inkscape"
   xmlns:sodipodi="http://sodipodi.sourceforge.net/DTD/sodipodi-0.dtd"
   xmlns="http://www.w3.org/2000/svg"
   xmlns:svg="http://www.w3.org/2000/svg"><sodipodi:namedview
     id="namedview7"
     pagecolor="#ffffff"
     bordercolor="#666666"
     borderopacity="1.0"
     inkscape:showpageshadow="2"
     inkscape:pageopacity="0.0"
     inkscape:pagecheckerboard="0"
     inkscape:deskcolor="#d1d1d1"
     inkscape:document-units="mm"
     showgrid="false"
     inkscape:zoom="0.2102413"
     inkscape:cx="-318.68144"
     inkscape:cy="563.63806"
     inkscape:window-width="2560"
     inkscape:window-height="1387"
     inkscape:window-x="0"
     inkscape:window-y="25"
     inkscape:window-maximized="1"
     inkscape:current-layer="layer1" /><defs
     id="defs2" /><g
     inkscape:label="Layer 1"
     inkscape:groupmode="layer"
     id="layer1"><rect
       style="fill:#ffffff;stroke-width:1"
       id="rect387"
       width="100"
       height="100"
       x="-3.5527137e-15"
       y="0" /><path
       style="fill:#007fc6;fill-opacity:1;stroke-width:0.137174"
       d="M 2.5e-6,50 V 0 H 50.000003 99.999997 v 50 50 H 50.000003 2.5e-6 Z m 9.356528,12.52664 c 0.297344,-0.0891 0.7947525,-0.3875 1.1053585,-0.66314 0.533401,-0.47335 0.567873,-0.55037 0.621216,-1.38809 0.05138,-0.80671 0.02281,-0.9269 -0.315489,-1.32898 -0.50529,-0.6005 -0.66121,-0.66857 -2.4250095,-1.05869 -0.844478,-0.18678 -1.68177,-0.4355 -1.860647,-0.55271 -0.441039,-0.28897 -0.379161,-0.95769 0.123158,-1.33101 0.50824,-0.37772 2.05752,-0.362 2.943407,0.0299 0.350485,0.15503 0.6590055,0.28188 0.6856075,0.28188 0.07399,0 0.60263,-1.06853 0.60263,-1.21808 0,-0.31602 -1.4428815,-0.63293 -2.8836235,-0.63335 -1.272513,-4.1e-4 -1.524098,0.0406 -2.126199,0.34622 -0.895675,0.45465 -1.352884,1.2656 -1.248747,2.2149 0.133533,1.21729 0.7,1.65508 2.640914,2.04103 1.656921,0.32948 2.103092,0.50229 2.237937,0.8668 0.457193,1.23592 -1.956603,1.71356 -3.90154,0.77203 -0.311669,-0.15088 -0.607659,-0.27433 -0.657752,-0.27433 -0.08547,0 -0.645351,1.00377 -0.645351,1.157 0,0.10795 0.826312,0.51455 1.440332,0.70874 0.702489,0.22217 2.960568,0.2406 3.663798,0.0299 z m 8.9158005,-0.0512 c 0.839506,-0.28604 1.685509,-1.03604 2.136558,-1.89408 0.322447,-0.61341 0.370643,-0.86484 0.371742,-1.93935 0.001,-1.11351 -0.03868,-1.30664 -0.405892,-1.96965 -0.836396,-1.51006 -2.076143,-2.15207 -3.956439,-2.04885 -1.717866,0.0943 -2.775853,0.7283 -3.501154,2.09806 -0.31508,0.59504 -0.363177,0.84938 -0.363177,1.92044 0,1.07594 0.04759,1.32514 0.370482,1.93935 0.436901,0.83114 1.291535,1.60569 2.080399,1.88546 0.7618,0.27017 2.486519,0.27473 3.267481,0.009 z m -2.271843,-1.22873 c -1.563454,-0.39698 -2.432325,-2.35975 -1.699553,-3.83926 0.208823,-0.42163 0.813614,-1.03075 1.249281,-1.25822 0.583193,-0.3045 1.707009,-0.27131 2.3764,0.0702 1.411993,0.72035 1.78516,2.98209 0.696579,4.22191 -0.712127,0.81108 -1.566726,1.0735 -2.622707,0.80538 z m 8.553698,0.88678 v -0.55516 l 0.514404,0.40103 c 0.696004,0.54261 1.266863,0.70954 2.421019,0.70795 2.239937,-0.003 3.758942,-1.44787 3.892527,-3.70236 0.07351,-1.2405 -0.101503,-1.95497 -0.691267,-2.82211 -1.093248,-1.60742 -3.829128,-2.1217 -5.416519,-1.01818 l -0.582991,0.40528 V 53.49515 51.44037 H 23.9369 23.182446 v 5.62414 5.62414 h 0.685868 0.685873 z m 1.646158,-0.97069 c -1.192408,-0.47548 -1.872856,-2.29432 -1.363083,-3.64354 0.181589,-0.48063 0.758146,-1.09998 1.275365,-1.37003 0.545419,-0.28477 1.712147,-0.27033 2.34296,0.029 1.85357,0.87958 1.897867,3.93521 0.07056,4.86743 -0.578174,0.29496 -1.733869,0.35317 -2.325804,0.11713 z m 12.731561,1.30243 c 0.380488,-0.12289 0.913256,-0.40597 1.18392,-0.62908 l 0.49212,-0.40565 -0.419672,-0.52987 -0.419668,-0.52988 -0.613486,0.43242 c -0.495968,0.3496 -0.781273,0.44311 -1.489388,0.4882 -0.481747,0.0307 -1.086471,-0.0137 -1.343832,-0.0987 -0.592297,-0.19548 -1.445236,-1.0608 -1.609223,-1.63258 l -0.125621,-0.43801 h 3.232802 3.232798 l -0.07163,-0.89237 c -0.182383,-2.27207 -1.6893,-3.6634 -3.956004,-3.65256 -2.323735,0.0111 -3.804195,1.41472 -3.938454,3.734 -0.122723,2.11993 0.908305,3.65547 2.853082,4.24919 0.61756,0.18853 2.277287,0.13575 2.992255,-0.0952 z M 34.62781,57.6475 c 0.372375,-1.56691 2.410686,-2.29916 3.79785,-1.36435 0.44279,0.2984 1.073614,1.21697 1.078259,1.57011 0.0016,0.13095 -0.58479,0.17147 -2.48175,0.17147 h -2.484004 z m 4.132118,-5.07544 c 0.558613,-0.50926 1.01677,-0.97223 1.01813,-1.02881 0.0016,-0.0566 -0.310534,-0.10288 -0.693085,-0.10288 -0.615482,0 -0.773082,0.0654 -1.368951,0.56781 -0.740761,0.62462 -0.633815,0.63706 -1.609679,-0.18722 -0.360393,-0.30441 -0.586926,-0.38059 -1.131686,-0.38059 -0.374604,0 -0.681098,0.0363 -0.681098,0.0806 0,0.0443 0.447529,0.50472 0.994513,1.02304 0.970021,0.91921 1.012508,0.94255 1.725352,0.94817 0.713335,0.006 0.755163,-0.0164 1.746504,-0.92016 z M 23.307113,48.26794 c 0.08831,-0.6886 0.142679,-1.25958 0.120825,-1.26886 -1.223576,-0.51956 -1.855981,-1.17438 -2.102832,-2.17737 l -0.09284,-0.37723 h -1.56263 c -0.859451,0 -1.56167,0.0463 -1.560493,0.10288 0.001,0.0566 0.0842,0.45149 0.184486,0.87757 0.424883,1.80516 1.789889,3.23873 3.654254,3.83781 1.217178,0.39112 1.177802,0.41994 1.359236,-0.9948 z m 3.537067,0.62093 c 1.603406,-0.76972 2.700195,-2.22434 2.963222,-3.92998 l 0.07933,-0.51441 h -1.563595 -1.563588 l -0.149844,0.55647 c -0.190039,0.70576 -0.969508,1.57553 -1.597781,1.78288 -0.471357,0.15556 -0.48226,0.17513 -0.405493,0.72781 0.0434,0.31238 0.119234,0.89331 0.168544,1.29095 l 0.08966,0.723 0.496351,-0.0815 c 0.272997,-0.0448 0.940434,-0.29467 1.483198,-0.55523 z m 20.739544,0.48567 c 1.671178,-0.38527 3.275751,-1.73043 3.870723,-3.24493 0.435927,-1.10963 0.441723,-3.06959 0.01229,-4.16042 -0.608421,-1.54554 -2.272865,-2.91459 -3.976929,-3.27111 -3.000716,-0.62781 -5.837933,0.63305 -6.998622,3.11018 -0.325557,0.69481 -0.367537,0.94916 -0.36763,2.22759 -1.04e-4,1.35175 0.0282,1.50072 0.446622,2.35066 0.746936,1.51724 1.910828,2.49559 3.466055,2.91352 0.876124,0.23543 2.684677,0.27342 3.547477,0.0745 z m -2.503162,-2.52468 c -1.980337,-0.70597 -2.528177,-3.57443 -0.962053,-5.03725 0.522016,-0.48758 1.01633,-0.66079 1.878078,-0.65805 1.434328,0.005 2.564884,1.09966 2.672598,2.58881 0.0322,0.44507 -0.01758,1.03987 -0.110628,1.32179 -0.266107,0.80631 -1.017802,1.54018 -1.822297,1.77909 -0.836111,0.2483 -0.973625,0.24876 -1.655698,0.006 z m 29.993445,2.46607 c 2.28168,-0.5943 3.43148,-2.55007 2.58168,-4.39133 -0.491429,-1.06479 -1.25324,-1.49157 -3.67702,-2.05992 -1.64927,-0.38674 -2.05418,-0.64139 -1.91316,-1.20322 0.18559,-0.73946 1.89006,-0.88111 3.521421,-0.29264 0.53928,0.19453 0.99634,0.33341 1.01569,0.30864 0.0193,-0.0248 0.23528,-0.53194 0.47983,-1.12703 0.51209,-1.2461 0.55377,-1.16916 -0.88217,-1.62861 -0.78729,-0.25191 -1.25668,-0.30515 -2.60631,-0.29564 -2.33086,0.0164 -3.52488,0.51787 -4.27306,1.79454 -0.31085,0.53043 -0.37821,0.80767 -0.37568,1.54628 0.004,0.9887 0.20642,1.50075 0.82991,2.09298 0.50965,0.4841 1.07142,0.70901 3.01251,1.20609 0.8832,0.22617 1.71914,0.51378 1.85764,0.63912 0.35653,0.32265 0.31235,0.68811 -0.11722,0.96957 -0.75022,0.49157 -3.26522,0.15378 -4.40231,-0.59127 -0.18034,-0.11816 -0.34804,-0.19447 -0.37268,-0.16958 -0.0616,0.0622 -1.02879,2.19137 -1.02879,2.26475 0,0.14039 1.57054,0.76051 2.36057,0.93206 1.16188,0.25229 3.03115,0.25474 3.98915,0.005 z M 7.1643945,46.771 l 0.03728,-2.61176 1.241966,2.02876 1.241971,2.02878 0.7634545,0.0406 0.76346,0.0406 1.218164,-2.07581 1.218169,-2.07581 0.09498,0.52629 c 0.05224,0.28945 0.09853,1.46764 0.102882,2.61819 l 0.0079,2.0919 h 1.37174 1.37174 V 44.0278 38.67286 l -1.264731,0.0395 -1.264737,0.0394 -1.725564,2.91028 c -0.94906,1.60065 -1.754343,2.93906 -1.78952,2.97424 -0.0352,0.0352 -0.8853385,-1.28988 -1.8892565,-2.94458 l -1.825299,-3.00853 h -1.224697 -1.224696 v 5.34979 5.3498 h 1.36878 1.36878 z M 36.488344,45.26753 V 41.1523 h 1.64609 1.64609 v -1.23457 -1.23457 h -4.801097 -4.801096 v 1.23457 1.23457 h 1.646092 1.64609 v 4.11523 4.11522 h 1.508914 1.508917 z m 19.890262,2.74348 v -1.37174 h 0.79017 0.79017 l 0.930298,1.37174 0.930293,1.37174 h 1.6403 c 0.90217,0 1.6403,-0.0275 1.6403,-0.0611 0,-0.0337 -0.50051,-0.7836 -1.11225,-1.66661 -0.92164,-1.33034 -1.07568,-1.62595 -0.89887,-1.7249 0.54894,-0.3072 1.06,-0.86726 1.38317,-1.51578 0.28685,-0.57563 0.3536,-0.90659 0.3536,-1.75311 0,-1.80749 -0.83367,-2.97358 -2.56941,-3.59396 -0.67947,-0.24285 -1.222852,-0.29266 -3.84348,-0.3523 l -3.052127,-0.0695 v 5.36863 5.36862 h 1.508918 1.508918 z m 0,-5.33301 v -1.5257 h 0.957439 c 1.26961,0 1.968472,0.28369 2.271382,0.92203 0.19155,0.40367 0.20522,0.579 0.0782,1.003 -0.22978,0.76694 -0.68757,0.99901 -2.106739,1.06801 l -1.200272,0.0584 z m 11.111111,1.35496 v -5.3498 h -1.50892 -1.50892 v 5.3498 5.34979 h 1.50892 1.50892 z m 16.87243,1.23457 V 41.1523 h 1.64609 1.64609 v -1.23457 -1.23457 h -4.8011 -4.8011 v 1.23457 1.23457 h 1.64609 1.64609 v 4.11523 4.11522 h 1.50892 1.50892 z m 12.757201,2.88065 v -1.23456 h -2.743491 -2.74348 v -0.89163 -0.89164 h 2.33196 2.331961 v -1.16598 -1.16598 h -2.331961 -2.33196 V 41.97535 41.1523 h 2.67489 2.674901 v -1.23457 -1.23457 h -4.18381 -4.18382 v 5.3498 5.34979 h 4.25241 4.2524 z m -75.60594,-5.40659 c 0.226466,-0.62628 1.121156,-1.41411 1.737147,-1.52967 1.414695,-0.2654 2.603669,0.26854 3.155481,1.41704 0.208754,0.43449 0.354118,0.57219 0.607996,0.57598 0.665149,0.01 2.752775,-0.30812 2.752775,-0.41936 0,-0.0627 -0.127814,-0.45569 -0.284035,-0.87323 -0.556487,-1.48735 -2.236625,-2.85773 -3.940823,-3.21428 -2.918889,-0.61069 -5.717362,0.56992 -6.883763,2.9041 -0.614632,1.22998 -0.592976,1.28367 0.580497,1.43917 0.546985,0.0725 1.244459,0.14006 1.549948,0.15017 0.513908,0.017 0.568095,-0.0166 0.724777,-0.44992 z m 73.291999,-5.87599 1.39405,-1.13169 -1.49479,-0.0408 -1.494789,-0.0408 -0.45103,0.52087 c -0.248071,0.28648 -0.70136,0.81407 -1.007291,1.17245 l -0.55625,0.65157 h 1.10802 1.108031 z"
       id="path333" /></g></svg>
