<?xml version="1.0" encoding="UTF-8" standalone="no"?>
<svg
   xmlns:dc="http://purl.org/dc/elements/1.1/"
   xmlns:cc="http://creativecommons.org/ns#"
   xmlns:rdf="http://www.w3.org/1999/02/22-rdf-syntax-ns#"
   xmlns:svg="http://www.w3.org/2000/svg"
   xmlns="http://www.w3.org/2000/svg"
   xmlns:sodipodi="http://sodipodi.sourceforge.net/DTD/sodipodi-0.dtd"
   xmlns:inkscape="http://www.inkscape.org/namespaces/inkscape"
   viewBox="0 0 446.66665 223.33466"
   height="223.33466"
   width="446.66666"
   xml:space="preserve"
   id="svg2"
   version="1.1"
   inkscape:version="0.48.5 r10040"
   sodipodi:docname="ods-logo-prechod (1).svg"><sodipodi:namedview
     pagecolor="#ffffff"
     bordercolor="#666666"
     borderopacity="1"
     objecttolerance="10"
     gridtolerance="10"
     guidetolerance="10"
     inkscape:pageopacity="0"
     inkscape:pageshadow="2"
     inkscape:window-width="640"
     inkscape:window-height="480"
     id="namedview3012"
     showgrid="false"
     fit-margin-top="0"
     fit-margin-left="0"
     fit-margin-right="0"
     fit-margin-bottom="0"
     inkscape:zoom="0.27260093"
     inkscape:cx="-233.24076"
     inkscape:cy="255.32551"
     inkscape:window-x="0"
     inkscape:window-y="0"
     inkscape:window-maximized="0"
     inkscape:current-layer="svg2" /><metadata
     id="metadata8"><rdf:RDF><cc:Work
         rdf:about=""><dc:format>image/svg+xml</dc:format><dc:type
           rdf:resource="http://purl.org/dc/dcmitype/StillImage" /><dc:title></dc:title></cc:Work></rdf:RDF></metadata><defs
     id="defs6"><clipPath
       id="clipPath18"
       clipPathUnits="userSpaceOnUse"><path
         id="path16"
         d="m 588.445,381.391 h -335 V 213.89 h 335 z"
         inkscape:connector-curvature="0" /></clipPath><linearGradient
       id="linearGradient30"
       spreadMethod="pad"
       gradientTransform="matrix(93.021271,255.57393,255.57393,-93.021256,374.43506,169.85254)"
       gradientUnits="userSpaceOnUse"
       y2="0"
       x2="1"
       y1="0"
       x1="0"><stop
         id="stop24"
         offset="0"
         style="stop-opacity:1;stop-color:#313a84" /><stop
         id="stop26"
         offset="0.4854273"
         style="stop-opacity:1;stop-color:#313a84" /><stop
         id="stop28"
         offset="1"
         style="stop-opacity:1;stop-color:#009cda" /></linearGradient><clipPath
       id="clipPath40"
       clipPathUnits="userSpaceOnUse"><path
         id="path38"
         d="M 0,595.28 H 841.89 V 0 H 0 z"
         inkscape:connector-curvature="0" /></clipPath></defs><g
     transform="matrix(1.3333333,0,0,-1.3333333,-337.92667,508.52132)"
     id="g10"><g
       id="g12"><g
         clip-path="url(#clipPath18)"
         id="g14"><g
           id="g20"><g
             id="g22"><path
               id="path32"
               style="fill:url(#linearGradient30);stroke:none"
               d="m 588.445,381.391 h -335 V 213.89 h 335 z"
               inkscape:connector-curvature="0" /></g></g></g></g><g
       id="g34"><g
         clip-path="url(#clipPath40)"
         id="g36"><g
           transform="translate(322.6909,271.0771)"
           id="g42"><path
             id="path44"
             style="fill:#ffffff;fill-opacity:1;fill-rule:nonzero;stroke:none"
             d="m 0,0 c -7.369,0 -12.732,6.105 -12.732,14.607 0,8.506 5.363,14.051 12.732,14.051 7.276,0 12.734,-5.545 12.734,-14.051 C 12.734,6.105 7.276,0 0,0 m 0,48.813 c -20.373,0 -35.746,-13.22 -35.746,-34.206 0,-20.984 15.373,-34.945 35.746,-34.945 20.376,0 35.835,13.961 35.835,34.945 0,20.986 -15.459,34.206 -35.835,34.206"
             inkscape:connector-curvature="0" /></g><g
           transform="translate(391.3325,271.4482)"
           id="g46"><path
             id="path48"
             style="fill:#ffffff;fill-opacity:1;fill-rule:nonzero;stroke:none"
             d="m 0,0 h -4.09 v 27.919 h 4.927 c 9.292,0 15.331,-5.083 15.331,-13.495 C 16.168,4.254 10.315,0 0,0 m -0.838,46.595 h -24.531 v -65.452 h 26.39 c 19.515,0 37.543,10.076 37.543,33.093 0,25.056 -18.677,32.359 -39.402,32.359"
             inkscape:connector-curvature="0" /></g><g
           transform="translate(431.2305,260.3389)"
           id="g50"><path
             id="path52"
             style="fill:#ffffff;fill-opacity:1;fill-rule:nonzero;stroke:none"
             d="M 0,0 11.854,15.254 C 15.709,12.242 23.473,8.91 29.178,8.91 c 2.142,0 4.656,0.35 4.816,2.66 0.17,2.399 -2.06,3.135 -11.898,6.186 -9.444,2.959 -17.998,7.867 -17.998,19.332 0,16.27 15.541,22.464 29.211,22.464 9.148,0 18.586,-3.514 25.964,-9.706 L 47.195,35.182 c -4.373,4.021 -10.047,6.198 -13.687,6.198 -3.442,0 -5.692,-0.825 -5.692,-2.641 0,-1.943 1.854,-2.564 6.67,-4.044 10.037,-3.052 23.51,-7.601 23.51,-21.101 C 57.996,-2.994 44.01,-9.6 30.063,-9.6 18.854,-9.6 7.279,-5.914 0,0"
             inkscape:connector-curvature="0" /></g><g
           transform="translate(516.6855,335.8545)"
           id="g54"><path
             id="path56"
             style="fill:#ffffff;fill-opacity:1;fill-rule:nonzero;stroke:none"
             d="M 0,0 C -4.803,4.327 -20.949,11.528 -38.26,7.504 -22.275,4.77 -7.807,-4.268 0,-15.964 7.805,-4.268 22.273,4.77 38.26,7.504 20.947,11.528 4.801,4.327 0,0"
             inkscape:connector-curvature="0" /></g></g></g></g></svg>