<?xml version="1.0" encoding="utf-8"?>
<!-- Generator: Adobe Illustrator 21.0.0, SVG Export Plug-In . SVG Version: 6.00 Build 0)  -->
<svg version="1.1"
	 id="svg2" inkscape:version="0.48.2 r9819" sodipodi:docname="logo_bez.svg" xmlns:cc="http://creativecommons.org/ns#" xmlns:dc="http://purl.org/dc/elements/1.1/" xmlns:inkscape="http://www.inkscape.org/namespaces/inkscape" xmlns:rdf="http://www.w3.org/1999/02/22-rdf-syntax-ns#" xmlns:sodipodi="http://sodipodi.sourceforge.net/DTD/sodipodi-0.dtd" xmlns:svg="http://www.w3.org/2000/svg"
	 xmlns="http://www.w3.org/2000/svg" xmlns:xlink="http://www.w3.org/1999/xlink" x="0px" y="0px" viewBox="0 0 510 510"
	 style="enable-background:new 0 0 510 510;" xml:space="preserve">
<style type="text/css">
	.st0{fill:none;stroke:#FFFFFF;stroke-width:24.2333;}
	.st1{fill:#FFFFFF;stroke:#000000;stroke-width:22;}
</style>
<sodipodi:namedview  bordercolor="#666666" borderopacity="1" fit-margin-bottom="23" fit-margin-left="23" fit-margin-right="23" fit-margin-top="23" gridtolerance="10" guidetolerance="10" id="namedview7" inkscape:current-layer="svg2" inkscape:cx="-106.48307" inkscape:cy="278.04236" inkscape:pageopacity="0" inkscape:pageshadow="2" inkscape:window-height="1026" inkscape:window-maximized="1" inkscape:window-width="1680" inkscape:window-x="0" inkscape:window-y="24" inkscape:zoom="0.50971922" objecttolerance="10" pagecolor="#ffffff" showgrid="false">
	</sodipodi:namedview>
<path id="path2827-0" inkscape:connector-curvature="0" class="st0" d="M255,497.9C120.9,497.9,12.1,389.1,12.1,255
	C12.1,120.9,120.9,12.1,255,12.1S497.9,120.9,497.9,255C497.9,389.1,389.1,497.9,255,497.9L255,497.9z"/>
<path id="path2827" inkscape:connector-curvature="0" class="st1" d="M255,475.5c-121.8,0-220.5-98.7-220.5-220.5
	c0-121.8,98.7-220.5,220.5-220.5S475.5,133.2,475.5,255C475.5,376.7,376.8,475.5,255,475.5L255,475.5z"/>
<path id="path8" inkscape:connector-curvature="0" d="M144.7,133.6c24.3-7.1,126.6,6.9,105.7,105.8c-7.6,36-49.4,53.6-69.6,68.7
	c-47.9,35.9-6.6,121.1-6.6,121.1s-22.3-66.3,27.4-97.6c45.7-28.8,203.4-15.3,202.8-104.3C403.3,56.9,137.7,118.4,144.7,133.6
	L144.7,133.6z"/>
<rect id="rect10" x="165.1" y="84.8" width="20.2" height="250.6"/>
</svg>
