<?xml version="1.0" encoding="UTF-8" standalone="no"?>
<svg
   width="110.71243"
   height="145.17032"
   version="1.1"
   viewBox="0 0 29.292047 38.409647"
   id="svg34"
   sodipodi:docname="Flag_of_the_Social_Democracy_(Czech_Republic).svg"
   inkscape:version="1.1.2 (b8e25be833, 2022-02-05)"
   xmlns:inkscape="http://www.inkscape.org/namespaces/inkscape"
   xmlns:sodipodi="http://sodipodi.sourceforge.net/DTD/sodipodi-0.dtd"
   xmlns="http://www.w3.org/2000/svg"
   xmlns:svg="http://www.w3.org/2000/svg">
  <defs
     id="defs38" />
  <sodipodi:namedview
     id="namedview36"
     pagecolor="#505050"
     bordercolor="#eeeeee"
     borderopacity="1"
     inkscape:pageshadow="0"
     inkscape:pageopacity="0"
     inkscape:pagecheckerboard="0"
     showgrid="false"
     fit-margin-top="0"
     fit-margin-left="0"
     fit-margin-right="0"
     fit-margin-bottom="0"
     inkscape:zoom="3.5119637"
     inkscape:cx="28.474099"
     inkscape:cy="98.520381"
     inkscape:window-width="1920"
     inkscape:window-height="1017"
     inkscape:window-x="-8"
     inkscape:window-y="-8"
     inkscape:window-maximized="1"
     inkscape:current-layer="svg34" />
  <style
     type="text/css"
     id="style2">.st0{fill:#63C3D1;}</style>
  <style
     type="text/css"
     id="style4">.st0{fill:#63C3D1;}</style>
  <style
     type="text/css"
     id="style6">.st0{fill:#fff;}</style>
  <style
     type="text/css"
     id="style8">.st0{fill:#63C3D1;}</style>
  <style
     type="text/css"
     id="style10">.st0{fill:#63C3D1;}</style>
  <style
     type="text/css"
     id="style12">.st0{fill:#fff;}</style>
  <path
     d="M 29.290162,21.427703 V 4.245486 C 29.290162,1.900588 27.389574,0 25.044676,0 H -0.0025 v 38.409648"
     fill="#ffffff"
     id="path24"
     style="stroke-width:0.13263;fill:#ff5f60;fill-opacity:1" />
  <path
     d="m 2.764162,19.186256 h 2.640663 c 2.456308,0 4.4378,-1.382005 4.4378,-3.997468 0,-2.644642 -1.970882,-3.947069 -4.443105,-3.947069 H 2.764162 Z m 2.006692,-6.107611 h 0.644582 c 1.297121,0 2.371424,0.733443 2.371424,2.120753 0,1.411183 -1.05043,2.134017 -2.382035,2.134017 H 4.770854 Z m 6.032012,-1.836926 v 7.944537 h 5.582397 v -1.787852 h -3.595599 v -1.367416 h 3.244129 v -1.713579 h -3.244129 v -1.298448 h 3.56642 v -1.777242 z m 13.769647,2.89266 v 5.051877 h 1.965576 l -0.004,-7.944537 h -2.655253 l -1.86743,4.874153 -1.950988,-4.874153 h -2.571673 v 7.944537 h 1.921808 v -4.993519 h 0.01989 l 1.956292,4.993519 h 1.233459 l 1.937725,-5.051877"
     fill="#ff5f60"
     id="path26"
     style="stroke-width:0.13263;fill:#ffffff;fill-opacity:1" />
  <path
     d="m 6.199279,10.432676 c 1.903241,0 3.012027,-1.238764 3.012027,-2.526601 0,-1.184386 -0.817001,-2.095554 -2.307762,-2.383362 L 5.764253,5.3052 C 5.298721,5.21634 5.174049,4.913942 5.174049,4.651334 c 0,-0.316985 0.297091,-0.733444 0.921779,-0.733444 0.722833,0 1.119397,0.466858 1.213564,1.110113 L 9.068066,4.533294 C 8.924825,3.486843 8.10252,2.238795 6.105112,2.238795 c -1.550445,0 -2.921839,1.06104 -2.921839,2.56639 0,1.262638 0.927083,2.084944 2.233489,2.338267 L 6.510959,7.35566 c 0.526542,0.104778 0.679066,0.367385 0.679066,0.633971 0,0.332902 -0.261281,0.758644 -0.980136,0.758644 -0.724159,0 -1.412509,-0.342185 -1.54116,-1.287837 L 2.875571,7.88618 c 0.263934,1.500045 1.332932,2.546496 3.323708,2.546496 M 9.7405,6.345019 c 0,2.309089 1.858146,4.091636 4.151319,4.091636 2.293173,0 4.149993,-1.807747 4.149993,-4.120814 0,-2.303783 -1.842231,-4.077046 -4.131425,-4.077046 -2.287867,0 -4.169887,1.803768 -4.169887,4.106224 m 2.045155,-0.01458 c 0,-1.17908 0.896578,-2.2189 2.110143,-2.2189 1.208259,0 2.106164,1.03982 2.106164,2.2189 0,1.179081 -0.8926,2.229511 -2.106164,2.229511 -1.213565,0 -2.110143,-1.05043 -2.110143,-2.229511 m 10.851786,4.106225 c 2.486813,0 3.645999,-1.793157 3.874123,-2.778598 l -1.88202,-0.588878 c -0.159156,0.574288 -0.738749,1.470867 -1.966903,1.470867 -1.258659,0 -2.070354,-1.02523 -2.070354,-2.209616 0,-1.218869 0.866074,-2.209615 2.070354,-2.209615 1.258659,0 1.807747,0.981462 1.931093,1.472193 L 26.46249,5.013423 C 26.179989,3.937794 25.08977,2.238804 22.69182,2.238804 c -2.427129,0 -4.149993,1.852841 -4.149993,4.106225 0,2.328982 1.802442,4.091635 4.095614,4.091635"
     fill="#ff5f60"
     id="path28"
     style="stroke-width:0.13263;fill:#ffffff;fill-opacity:1" />
</svg>
