<?xml version="1.0" encoding="UTF-8" standalone="no"?>
<!DOCTYPE svg PUBLIC "-//W3C//DTD SVG 1.1//EN" "http://www.w3.org/Graphics/SVG/1.1/DTD/svg11.dtd">
<svg width="100%" height="100%" viewBox="0 0 644 387" version="1.1" xmlns="http://www.w3.org/2000/svg" xmlns:xlink="http://www.w3.org/1999/xlink" xml:space="preserve" xmlns:serif="http://www.serif.com/" style="fill-rule:evenodd;clip-rule:evenodd;stroke-linejoin:round;stroke-miterlimit:2;">
    <g>
        <path d="M307.251,338.697L421.213,386.314L421.209,254.747L307.251,338.697L421.209,386.314L421.213,254.747L307.251,338.697Z" style="fill:#ff0053;fill-rule:nonzero;"/>
        <path d="M336.706,302.32L222.744,254.72L222.744,386.287L336.706,302.32L222.744,254.72L222.744,386.287L336.706,302.32Z" style="fill:#2b3cd6;fill-rule:nonzero;"/>
        <rect x="386.3" y="0.371" width="257.337" height="214.45" style="fill:#2b3cd6;"/>
        <rect x="0.292" y="0.371" width="386.008" height="214.45" style="fill:#ff0053;"/>
        <path d="M481.038,138.156C482.468,134.856 483.488,131.172 484.101,127.114C484.718,123.047 485.026,118.11 485.026,112.297C485.026,107.077 484.743,102.372 484.176,98.189C483.609,94.002 482.663,90.285 481.33,87.031C479.951,83.685 478.134,81.097 475.868,79.272C473.601,77.456 470.818,76.543 467.518,76.543C464.168,76.543 461.359,77.443 459.093,79.235C456.826,81.035 454.98,83.585 453.551,86.885C452.276,89.889 451.338,93.572 450.743,97.931C450.155,102.289 449.859,107.077 449.859,112.297C449.859,117.764 450.118,122.422 450.634,126.264C451.155,130.102 452.101,133.797 453.48,137.347C454.713,140.543 456.484,143.131 458.797,145.102C461.113,147.072 463.968,148.056 467.372,148.056C470.522,148.056 473.255,147.168 475.572,145.397C477.884,143.622 479.709,141.21 481.038,138.156M501.872,83.118C505.613,87.056 508.38,91.547 510.184,96.597C511.98,101.647 512.88,106.881 512.88,112.297C512.88,118.752 511.759,124.577 509.518,129.768C507.276,134.968 504.213,139.364 500.318,142.956C496.23,146.702 491.48,149.56 486.059,151.531C480.643,153.502 474.413,154.485 467.372,154.485C459.934,154.485 453.368,153.327 447.68,151.014C441.993,148.697 437.251,145.643 433.459,141.852C429.718,138.106 426.872,133.702 424.926,128.627C422.976,123.552 422.005,118.11 422.005,112.297C422.005,106.535 422.934,101.193 424.78,96.264C426.622,91.343 429.468,86.885 433.309,82.893C437.051,79.006 441.805,75.889 447.572,73.547C453.334,71.21 459.955,70.039 467.443,70.039C475.176,70.039 481.922,71.247 487.688,73.66C493.451,76.077 498.176,79.222 501.872,83.118" style="fill:#fff;fill-rule:nonzero;"/>
        <path d="M580.924,118.507C580.924,117.815 580.949,116.978 580.999,115.99C581.045,115.007 581.07,114.048 581.07,113.111C581.07,101.29 579.653,92.24 576.828,85.961C573.991,79.682 570.312,76.544 565.778,76.544C561.395,76.544 557.837,78.932 555.107,83.707C552.37,88.486 551.003,95.382 551.003,104.394C551.003,112.273 552.395,118.557 555.178,123.236C557.957,127.915 561.616,130.248 566.149,130.248C569.007,130.248 571.637,129.686 574.053,128.553C576.47,127.423 578.707,125.303 580.778,122.198C580.778,121.953 580.803,121.523 580.849,120.907C580.899,120.29 580.924,119.49 580.924,118.507M607.891,114.44C607.891,132.369 601.832,147.036 589.716,158.436C577.599,169.836 561.049,176.919 540.066,179.678L538.37,172.365L546.199,171.032C552.257,169.307 557.282,167.09 561.27,164.386C565.262,161.673 568.537,158.523 571.099,154.928C573.757,151.232 575.778,147.319 577.157,143.182C578.537,139.044 579.57,134.782 580.262,130.398C575.924,134.194 571.728,136.69 567.662,137.898C563.603,139.103 559.032,139.711 553.957,139.711C549.724,139.711 545.757,138.873 542.066,137.194C538.37,135.523 535.17,133.232 532.457,130.328C529.703,127.369 527.545,123.811 525.995,119.648C524.445,115.486 523.67,110.969 523.67,106.094C523.67,95.698 527.657,87.094 535.637,80.273C543.616,73.453 553.587,70.04 565.557,70.04C578.512,70.04 588.807,74.053 596.441,82.082C604.074,90.111 607.891,100.894 607.891,114.44" style="fill:#fff;fill-rule:nonzero;"/>
        <path d="M133.126,76.742L127.363,76.742C125.842,72.263 123.397,67.459 120.03,62.338C116.663,57.213 113.555,54.455 110.705,54.063C109.13,53.867 107.188,53.696 104.884,53.546C102.572,53.396 100.58,53.325 98.913,53.325L95.447,53.325L95.447,135.55C95.447,137.325 95.767,138.888 96.405,140.242C97.051,141.596 98.305,142.667 100.176,143.459C101.309,143.9 103.067,144.359 105.459,144.825C107.851,145.292 109.88,145.625 111.551,145.821L111.551,151.584L53.117,151.584L53.117,145.821C54.547,145.675 56.551,145.463 59.134,145.192C61.722,144.921 63.48,144.588 64.422,144.192C66.342,143.409 67.617,142.346 68.263,141.021C68.901,139.688 69.222,138.113 69.222,136.292L69.222,53.325L65.755,53.325C64.084,53.325 62.092,53.396 59.784,53.546C57.476,53.696 55.538,53.867 53.963,54.063C51.109,54.455 48.005,57.213 44.638,62.338C41.272,67.459 38.826,72.263 37.305,76.742L31.542,76.742L31.542,46.75L133.126,46.75L133.126,76.742Z" style="fill:#fff;fill-rule:nonzero;"/>
        <path d="M214.026,133.464C216.242,128.977 217.842,123.893 218.83,118.222C219.817,112.543 220.309,106.131 220.309,98.985C220.309,92.914 219.876,87.01 219.013,81.26C218.151,75.514 216.688,70.393 214.622,65.906C212.501,61.418 209.692,57.818 206.197,55.102C202.697,52.393 198.338,51.035 193.117,51.035C184.205,51.035 177.434,55.264 172.801,63.727C168.172,72.185 165.855,84.135 165.855,99.572C165.855,106.135 166.363,112.327 167.376,118.147C168.384,123.968 169.972,129.047 172.138,133.385C174.355,137.777 177.159,141.193 180.559,143.635C183.959,146.077 188.142,147.297 193.117,147.297C197.992,147.297 202.18,146.064 205.68,143.602C209.176,141.135 211.959,137.752 214.026,133.464M233.017,58.422C238.188,63.152 242.284,68.864 245.317,75.564C248.342,82.26 249.859,89.893 249.859,98.464C249.859,106.102 248.58,113.364 246.017,120.26C243.455,127.152 239.763,133.089 234.938,138.064C229.863,143.235 223.901,147.264 217.059,150.143C210.209,153.022 202.059,154.464 192.601,154.464C184.967,154.464 177.755,153.206 170.955,150.697C164.159,148.185 158.176,144.539 153.001,139.764C147.88,135.085 143.813,129.393 140.813,122.697C137.809,116.002 136.309,108.539 136.309,100.31C136.309,91.739 137.772,83.972 140.701,77.002C143.63,70.031 147.659,64.064 152.784,59.085C157.855,54.21 163.876,50.456 170.847,47.818C177.817,45.185 185.238,43.868 193.117,43.868C200.951,43.868 208.301,45.147 215.172,47.71C222.042,50.268 227.992,53.843 233.017,58.422" style="fill:#fff;fill-rule:nonzero;"/>
        <path d="M326.623,76.742C326.623,68.863 325.032,63.013 321.857,59.196C318.682,55.38 313.027,53.471 304.902,53.471L298.769,53.471L298.769,99.5L301.873,99.5C309.948,99.5 316.098,97.642 320.302,93.921C324.515,90.2 326.623,84.475 326.623,76.742M355.436,72.975C355.436,78.888 354.219,83.971 351.777,88.234C349.34,92.492 345.982,95.95 341.694,98.613C337.261,101.371 332.202,103.367 326.515,104.596C320.823,105.825 314.432,106.442 307.34,106.442L298.769,106.442L298.769,135.921C298.769,137.696 299.107,139.234 299.769,140.542C300.432,141.842 301.702,142.892 303.573,143.675C304.557,144.071 306.157,144.492 308.373,144.934C310.59,145.38 312.465,145.675 313.99,145.821L313.99,151.584L257.177,151.584L257.177,145.821C258.607,145.675 260.502,145.463 262.865,145.192C265.232,144.921 266.877,144.588 267.815,144.192C269.736,143.409 271.002,142.45 271.619,141.313C272.232,140.184 272.544,138.609 272.544,136.584L272.544,62.63C272.544,60.909 272.248,59.421 271.657,58.163C271.065,56.905 269.782,55.859 267.815,55.021C266.436,54.434 264.598,53.905 262.311,53.434C260.023,52.967 258.307,52.659 257.177,52.513L257.177,46.75L315.023,46.75C328.569,46.75 338.69,48.9 345.386,53.213C352.086,57.525 355.436,64.113 355.436,72.975" style="fill:#fff;fill-rule:nonzero;"/>
    </g>
</svg>
